HIERARCHY
ROOT \Bone
{
	OFFSET 0.000000 0.000000 0.669614
	CHANNELS 6 Xposition Yposition Zposition Xrotation Yrotation Zrotation
	JOINT Bone.001_L
	{
		OFFSET -0.385522 0.020788 1.110934
		CHANNELS 3 Xrotation Yrotation Zrotation
		JOINT Bone.001_L.001
		{
			OFFSET -0.608608 -0.026840 -0.010673
			CHANNELS 3 Xrotation Yrotation Zrotation
			End Site
			{
				OFFSET -1.170957 0.004529 -0.017893
			}
		}
	}
	JOINT Bone.001_R
	{
		OFFSET 0.385522 0.020788 1.110934
		CHANNELS 3 Xrotation Yrotation Zrotation
		JOINT Bone.001_R.001
		{
			OFFSET 0.608608 -0.026840 -0.010673
			CHANNELS 3 Xrotation Yrotation Zrotation
			End Site
			{
				OFFSET 1.170957 0.004529 -0.017893
			}
		}
	}
}
MOTION
Frames: 40
Frame Time: 0.041667
0.000000 0.000000 0.669614 -0.000000 0.000000 -0.000000 22.108976 -6.946530 -26.143563 -1.093101 -33.224530 -21.963250 -0.091139 24.404613 19.280188 -21.637027 -2.213635 49.665386
0.000000 0.000000 0.669614 -0.000000 0.000000 -0.000000 22.108976 -6.946530 -26.143563 -1.093101 -33.224530 -21.963250 -0.352824 24.402377 19.913562 -21.963049 -2.409508 50.490005
0.000000 0.000000 0.669614 -0.000000 0.000000 -0.000000 22.108976 -6.946530 -26.143563 -1.093101 -33.224530 -21.963250 -0.767606 24.393438 20.917681 -22.475537 -2.730479 51.798871
0.000000 0.000000 0.669614 -0.000000 0.000000 -0.000000 22.108976 -6.946530 -26.143563 -1.093101 -33.224530 -21.963250 -1.317923 24.371336 22.250685 -23.147076 -3.176226 53.539193
0.000000 0.000000 0.669614 -0.000000 0.000000 -0.000000 22.108976 -6.946530 -26.143563 -1.093101 -33.224530 -21.963250 -1.985755 24.328787 23.870333 -23.948440 -3.747616 55.657548
0.000000 0.000000 0.669614 -0.000000 0.000000 -0.000000 22.108976 -6.946530 -26.143563 -1.093101 -33.224530 -21.963250 -2.752342 24.258518 25.733491 -24.848744 -4.444665 58.098982
0.000000 0.000000 0.669614 -0.000000 0.000000 -0.000000 22.108976 -6.946530 -26.143563 -1.093101 -33.224530 -21.963250 -3.598084 24.154158 27.795976 -25.815958 -5.264712 60.806483
0.000000 0.000000 0.669614 -0.000000 0.000000 -0.000000 22.108976 -6.946530 -26.143563 -1.093101 -33.224530 -21.963250 -4.502591 24.010852 30.012391 -26.817770 -6.200935 63.720897
0.000000 0.000000 0.669614 -0.000000 0.000000 -0.000000 22.108976 -6.946530 -26.143563 -1.093101 -33.224530 -21.963250 -5.444941 23.825944 32.336410 -27.822673 -7.241367 66.781341
0.000000 0.000000 0.669614 -0.000000 0.000000 -0.000000 22.108976 -6.946530 -26.143563 -1.093101 -33.224530 -21.963250 -6.404069 23.599335 34.721123 -28.801337 -8.368437 69.925817
0.000000 0.000000 0.669614 -0.000000 0.000000 -0.000000 22.108976 -6.946530 -26.143563 -1.093101 -33.224530 -21.963250 -7.359281 23.333774 37.119561 -29.727965 -9.559149 73.092142
0.000000 0.000000 0.669614 -0.000000 0.000000 -0.000000 22.108976 -6.946530 -26.143563 -1.093101 -33.224530 -21.963250 -8.290753 23.034869 39.485266 -30.581397 -10.785830 76.218791
0.000000 0.000000 0.669614 -0.000000 0.000000 -0.000000 22.108976 -6.946530 -26.143563 -1.093101 -33.224530 -21.963250 -9.180025 22.710966 41.772884 -31.346047 -12.017357 79.245685
0.000000 0.000000 0.669614 -0.000000 0.000000 -0.000000 22.108976 -6.946530 -26.143563 -1.093101 -33.224530 -21.963250 -10.010328 22.372793 43.938518 -32.012120 -13.220541 82.114658
0.000000 0.000000 0.669614 -0.000000 0.000000 -0.000000 22.108976 -6.946530 -26.143563 -1.093101 -33.224530 -21.963250 -10.766758 22.033029 45.940068 -32.575460 -14.361571 84.769703
0.000000 0.000000 0.669614 -0.000000 0.000000 -0.000000 22.108976 -6.946530 -26.143563 -1.093101 -33.224530 -21.963250 -11.436232 21.705742 47.737210 -33.036867 -15.407242 87.156929
0.000000 0.000000 0.669614 -0.000000 0.000000 -0.000000 22.108976 -6.946530 -26.143563 -1.093101 -33.224530 -21.963250 -12.007245 21.405828 49.291303 -33.400923 -16.325776 89.224148
0.000000 0.000000 0.669614 -0.000000 0.000000 -0.000000 22.108976 -6.946530 -26.143563 -1.093101 -33.224530 -21.963250 -12.469394 21.148404 50.564813 -33.674475 -17.087240 90.920439
0.000000 0.000000 0.669614 -0.000000 0.000000 -0.000000 22.108976 -6.946530 -26.143563 -1.093101 -33.224530 -21.963250 -12.812800 20.948270 51.520937 -33.864884 -17.663530 92.195423
0.000000 0.000000 0.669614 -0.000000 0.000000 -0.000000 22.108976 -6.946530 -26.143563 -1.093101 -33.224530 -21.963250 -13.027295 20.819306 52.122645 -33.978040 -18.028044 92.998497
0.000000 0.000000 0.669614 -0.000000 0.000000 -0.000000 22.108976 -6.946530 -26.143563 -1.093101 -33.224530 -21.963250 -13.101611 20.773897 52.331963 -34.016200 -18.155164 93.277988
0.000000 0.000000 0.669614 -0.000000 0.000000 -0.000000 22.108976 -6.946530 -26.143563 -1.093101 -33.224530 -21.963250 -13.011110 20.829143 52.077126 -33.969649 -18.000417 92.937701
0.000000 0.000000 0.669614 -0.000000 0.000000 -0.000000 22.108976 -6.946530 -26.143563 -1.093101 -33.224530 -21.963250 -12.750865 20.984938 51.347860 -33.831375 -17.558931 91.964508
0.000000 0.000000 0.669614 -0.000000 0.000000 -0.000000 22.108976 -6.946530 -26.143563 -1.093101 -33.224530 -21.963250 -12.335819 21.224200 50.195214 -33.597403 -16.865475 90.427887
0.000000 0.000000 0.669614 -0.000000 0.000000 -0.000000 22.108976 -6.946530 -26.143563 -1.093101 -33.224530 -21.963250 -11.779505 21.527802 48.669001 -33.259090 -15.956486 88.396021
0.000000 0.000000 0.669614 -0.000000 0.000000 -0.000000 22.108976 -6.946530 -26.143563 -1.093101 -33.224530 -21.963250 -11.095452 21.875539 46.819222 -32.806522 -14.870763 85.937119
0.000000 0.000000 0.669614 -0.000000 0.000000 -0.000000 22.108976 -6.946530 -26.143563 -1.093101 -33.224530 -21.963250 -10.298336 22.247079 44.697188 -32.231676 -13.649938 83.120622
0.000000 0.000000 0.669614 -0.000000 0.000000 -0.000000 22.108976 -6.946530 -26.143563 -1.093101 -33.224530 -21.963250 -9.404882 22.622867 42.356353 -31.531148 -12.338108 80.018309
0.000000 0.000000 0.669614 -0.000000 0.000000 -0.000000 22.108976 -6.946530 -26.143563 -1.093101 -33.224530 -21.963250 -8.434422 22.985139 39.852808 -30.708360 -10.980796 76.704875
0.000000 0.000000 0.669614 -0.000000 0.000000 -0.000000 22.108976 -6.946530 -26.143563 -1.093101 -33.224530 -21.963250 -7.409065 23.318809 37.245295 -29.774861 -9.623070 73.258239
0.000000 0.000000 0.669614 -0.000000 0.000000 -0.000000 22.108976 -6.946530 -26.143563 -1.093101 -33.224530 -21.963250 -6.353510 23.612270 34.594860 -28.750920 -8.307308 69.759242
0.000000 0.000000 0.669614 -0.000000 0.000000 -0.000000 22.108976 -6.946530 -26.143563 -1.093101 -33.224530 -21.963250 -5.294495 23.857943 31.964216 -27.665034 -7.070810 66.290941
0.000000 0.000000 0.669614 -0.000000 0.000000 -0.000000 22.108976 -6.946530 -26.143563 -1.093101 -33.224530 -21.963250 -4.260035 24.052528 29.416785 -26.552570 -5.943869 62.937284
0.000000 0.000000 0.669614 -0.000000 0.000000 -0.000000 22.108976 -6.946530 -26.143563 -1.093101 -33.224530 -21.963250 -3.278561 24.196918 27.015768 -25.453882 -4.948604 59.781729
0.000000 0.000000 0.669614 -0.000000 0.000000 -0.000000 22.108976 -6.946530 -26.143563 -1.093101 -33.224530 -21.963250 -2.378135 24.295693 24.823361 -24.411964 -4.098908 56.905806
0.000000 0.000000 0.669614 -0.000000 0.000000 -0.000000 22.108976 -6.946530 -26.143563 -1.093101 -33.224530 -21.963250 -1.585858 24.356338 22.900169 -23.470424 -3.401456 54.388185
0.000000 0.000000 0.669614 -0.000000 0.000000 -0.000000 22.108976 -6.946530 -26.143563 -1.093101 -33.224530 -21.963250 -0.927589 24.388213 21.305083 -22.671766 -2.857725 52.304339
0.000000 0.000000 0.669614 -0.000000 0.000000 -0.000000 22.108976 -6.946530 -26.143563 -1.093101 -33.224530 -21.963250 -0.428008 24.401250 20.095545 -22.056332 -2.466732 50.727081
0.000000 0.000000 0.669614 -0.000000 0.000000 -0.000000 22.108976 -6.946530 -26.143563 -1.093101 -33.224530 -21.963250 -0.110958 24.404537 19.328162 -21.661790 -2.228289 49.727810
0.000000 0.000000 0.669614 -0.000000 0.000000 -0.000000 22.108976 -6.946530 -26.143563 -1.093101 -33.224530 -21.963250 0.000000 24.404776 19.059616 -21.523010 -2.146620 49.378388
